<?xml version="1.0" standalone="no"?>
<!DOCTYPE svg PUBLIC "-//W3C//DTD SVG 20010904//EN"
 "http://www.w3.org/TR/2001/REC-SVG-20010904/DTD/svg10.dtd">
<svg version="1.0" xmlns="http://www.w3.org/2000/svg"
 width="1500.000000pt" height="1500.000000pt" viewBox="0 0 1500.000000 1500.000000"
 preserveAspectRatio="xMidYMid meet">
<metadata>
Created by potrace 1.11, written by Peter Selinger 2001-2013
</metadata>
<g transform="translate(0.000000,1500.000000) scale(0.100000,-0.100000)"
fill="#000000" stroke="none">
<path d="M2235 14993 c-360 -29 -591 -88 -870 -222 -258 -124 -437 -253 -650
-466 -218 -217 -339 -377 -454 -603 -150 -294 -224 -559 -251 -893 -8 -94 -10
-1695 -8 -5399 3 -4919 5 -5272 21 -5370 60 -371 174 -668 362 -950 103 -154
180 -246 329 -395 404 -402 893 -632 1451 -685 154 -14 10508 -14 10660 0 579
55 1063 285 1480 705 318 318 546 728 635 1140 59 276 54 -202 58 5560 2 3752
0 5297 -8 5388 -36 421 -156 772 -379 1108 -196 295 -471 564 -766 747 -255
158 -595 278 -915 324 -65 9 -1300 12 -5370 13 -2907 1 -5303 0 -5325 -2z
m5577 -1572 c104 -7 110 -8 78 -19 -32 -11 -28 -11 33 -6 52 4 67 3 67 -8 0
-10 19 -12 86 -10 47 2 131 -4 188 -13 57 -9 125 -15 152 -15 61 2 262 -24
272 -35 8 -9 -51 -4 -278 20 -104 11 -163 13 -180 7 -27 -11 -38 -8 125 -29
l60 -8 -45 -3 c-144 -9 19 -41 210 -40 125 1 125 1 52 10 -39 6 -70 14 -66 19
8 13 204 2 265 -15 30 -8 89 -20 131 -26 122 -18 280 -79 400 -156 37 -24 81
-50 98 -59 36 -19 197 -69 254 -79 72 -13 34 16 -83 63 -63 25 -114 50 -115
56 -3 22 37 14 91 -19 34 -20 109 -50 180 -71 151 -44 280 -95 355 -141 62
-38 70 -45 38 -37 -23 6 -26 -9 -5 -27 8 -7 13 -16 10 -20 -6 -10 53 -34 136
-55 36 -10 76 -28 94 -44 23 -20 51 -31 106 -40 72 -13 273 -96 265 -110 -11
-18 96 -111 179 -156 111 -59 233 -146 322 -228 86 -78 233 -191 240 -183 6 6
141 -95 202 -151 20 -18 40 -33 45 -33 4 0 6 -7 2 -15 -3 -8 -1 -15 3 -15 5 0
17 -20 27 -45 17 -45 27 -54 39 -35 13 22 41 3 67 -44 39 -68 60 -94 192 -234
64 -68 130 -146 148 -173 17 -27 37 -49 45 -49 7 0 13 -4 13 -10 0 -5 11 -10
25 -10 23 0 25 -4 25 -40 0 -41 7 -49 27 -29 10 10 62 -63 107 -148 9 -18 30
-49 47 -68 30 -34 31 -36 14 -55 -16 -18 -16 -18 2 -14 29 8 77 -52 93 -115
11 -48 11 -56 -4 -66 -23 -18 -20 -28 9 -23 19 4 29 -2 50 -33 15 -20 32 -40
39 -42 17 -7 101 -151 121 -207 9 -24 23 -52 32 -63 16 -17 18 -17 29 -2 11
15 15 12 33 -23 14 -28 17 -42 9 -50 -16 -16 15 -60 47 -68 14 -3 25 -10 25
-16 0 -5 -9 -7 -19 -3 -33 10 -33 -13 -1 -30 30 -16 43 -39 15 -29 -10 4 -15
0 -15 -14 0 -26 17 -37 35 -22 11 9 16 7 25 -9 25 -48 142 -420 145 -461 2
-25 4 -49 5 -55 6 -26 -1 -36 -20 -30 -16 5 -20 2 -20 -18 0 -18 6 -26 25 -29
16 -3 29 0 33 9 7 11 12 10 27 -7 10 -11 26 -20 36 -20 28 0 59 -48 59 -90 0
-33 6 -72 24 -157 3 -12 10 -32 17 -45 7 -13 14 -64 15 -115 2 -76 6 -97 24
-121 27 -36 39 -112 19 -112 -8 0 -1 -10 15 -23 21 -17 29 -33 31 -63 1 -21 6
-56 10 -76 5 -26 4 -38 -4 -38 -17 0 -13 -37 9 -80 21 -41 27 -95 11 -104 -5
-3 6 -35 24 -71 18 -36 28 -62 22 -58 -7 4 -7 1 1 -9 8 -10 12 -40 10 -84 -3
-59 -1 -69 13 -66 12 1 16 -6 17 -28 0 -17 10 -47 21 -66 12 -19 21 -46 21
-60 0 -19 -5 -24 -26 -24 -34 0 -26 -24 9 -28 26 -3 39 -32 15 -32 -14 0 -98
-80 -98 -93 0 -4 5 -5 10 -2 15 9 11 -36 -5 -65 -21 -36 -19 -60 4 -60 18 0
20 -6 16 -57 -2 -32 -7 -76 -11 -97 -5 -30 -3 -42 10 -51 11 -9 16 -27 15 -61
0 -27 2 -86 6 -131 l7 -82 -23 6 c-21 6 -23 5 -10 -10 7 -9 11 -28 9 -42 -4
-21 0 -26 29 -36 18 -6 38 -19 43 -29 13 -24 13 -33 0 -25 -5 3 -10 -1 -10 -9
0 -9 -4 -16 -9 -16 -5 0 -9 -12 -8 -27 2 -65 -4 -103 -16 -103 -14 0 -38 -68
-25 -72 4 -2 3 -19 -3 -38 -5 -19 -21 -93 -34 -164 -13 -71 -31 -136 -40 -146
-17 -19 -23 -106 -11 -157 7 -29 5 -33 -13 -33 -29 0 -35 -17 -17 -45 20 -30
20 -35 2 -35 -14 0 -32 -46 -26 -65 11 -38 18 -110 11 -123 -27 -53 -33 -71
-26 -81 3 -6 10 -9 15 -6 5 3 12 -1 17 -8 4 -8 15 -16 23 -19 12 -4 10 -7 -8
-17 -18 -10 -22 -9 -22 4 0 34 -16 11 -41 -58 -15 -41 -29 -104 -32 -146 -5
-59 -11 -79 -30 -100 -55 -60 -94 -141 -68 -141 13 0 14 -53 2 -98 -8 -25 -7
-34 4 -38 20 -8 -27 -153 -58 -180 -13 -11 -35 -42 -48 -69 -13 -26 -32 -50
-41 -53 -20 -5 -37 -46 -36 -85 0 -16 -5 -34 -12 -40 -10 -9 -11 -7 -5 13 7
23 6 24 -9 11 -9 -8 -22 -23 -28 -34 -9 -17 -8 -19 8 -14 13 5 11 0 -8 -16
-15 -13 -31 -41 -38 -67 -6 -25 -18 -55 -26 -67 -8 -12 -21 -47 -28 -77 -8
-30 -19 -63 -25 -73 -13 -24 -54 -58 -65 -55 -20 6 -56 -9 -56 -24 0 -8 -4
-13 -9 -10 -4 3 -13 -12 -20 -33 -15 -52 -14 -58 8 -64 30 -7 16 -38 -30 -67
-21 -13 -39 -30 -39 -37 0 -8 -7 -25 -16 -38 -9 -13 -13 -28 -10 -34 6 -9 -23
-25 -31 -18 -2 2 1 16 7 31 5 15 10 43 10 62 0 32 -2 34 -25 28 -31 -8 -33 8
-4 37 17 17 23 19 30 8 8 -11 14 -9 30 11 18 21 20 34 16 79 -6 54 -16 77 -24
54 -8 -21 -23 -15 -23 9 0 12 8 31 18 42 10 12 40 56 66 98 26 43 51 80 55 82
15 10 -2 -49 -21 -74 -19 -24 -19 -24 4 -42 54 -41 95 -9 84 68 -6 50 9 105
29 98 19 -8 27 11 27 66 -1 52 -23 107 -48 117 -18 7 -18 23 1 23 8 0 40 38
71 85 32 47 64 85 72 85 10 0 12 7 7 28 -8 34 -32 72 -45 72 -15 0 -12 22 7
42 10 12 13 22 8 26 -16 11 -12 57 4 54 9 -2 12 4 8 18 -7 28 4 25 38 -10 16
-17 36 -30 45 -30 10 0 39 17 66 37 l48 37 -50 23 c-28 13 -80 29 -115 36
l-64 13 31 17 c38 20 46 39 38 83 -6 33 8 49 19 22 3 -7 6 2 6 20 1 19 4 32 9
30 4 -2 19 -10 35 -17 29 -15 34 -14 37 9 6 42 -3 73 -30 102 l-29 33 -1 -60
c-1 -51 -3 -56 -11 -35 -6 14 -16 36 -23 50 -10 21 -10 32 4 65 13 31 18 36
23 21 7 -17 9 -16 27 5 20 23 21 23 33 5 114 -177 131 -201 135 -176 2 14 8
28 14 31 15 10 -25 80 -82 142 -27 30 -50 58 -50 61 0 10 50 7 71 -4 16 -9 19
-7 19 13 0 13 -11 38 -25 57 -14 19 -25 42 -25 51 0 10 -5 19 -10 21 -6 2 -8
16 -4 35 5 25 13 33 35 38 29 7 37 19 19 30 -22 14 -9 27 20 22 37 -8 40 9 5
25 -32 14 -31 21 5 51 38 32 38 40 0 35 -36 -5 -43 2 -34 36 l6 25 26 -19 c15
-11 52 -22 82 -26 l55 -7 -20 24 c-10 13 -40 46 -65 73 -31 33 -39 46 -25 42
19 -5 20 -1 20 96 0 71 4 103 12 105 7 3 18 23 24 45 9 36 8 43 -10 62 -12 12
-21 29 -20 37 0 8 5 4 11 -8 17 -35 28 -28 28 17 0 27 -6 45 -21 58 -19 18
-19 21 -4 36 16 16 16 36 -1 80 -4 10 -1 16 9 16 14 0 27 -39 27 -85 0 -19 7
-24 35 -27 51 -6 45 29 -27 139 -39 60 -39 63 -27 100 7 21 13 41 14 44 0 3 8
13 18 23 9 10 17 22 17 27 0 5 13 3 30 -6 16 -8 32 -15 35 -15 13 0 -36 59
-54 65 -12 3 -17 12 -14 23 2 10 -7 38 -21 62 -29 51 -32 70 -12 70 9 0 12 7
9 20 -3 11 5 39 17 62 l22 43 -33 27 c-18 16 -29 28 -24 28 6 0 3 5 -5 10 -12
8 -13 12 -2 19 11 7 11 17 -3 56 -9 27 -15 62 -13 79 3 28 1 31 -24 29 -35 -2
-36 10 -3 25 30 14 33 47 5 62 -24 13 -26 30 -5 30 15 0 20 26 17 79 -1 13 3
32 9 43 7 14 6 20 -6 24 -8 3 -15 14 -15 24 0 11 -4 22 -10 25 -15 9 -12 42 4
48 8 3 18 -5 25 -19 6 -14 16 -22 22 -18 7 4 7 10 1 16 -6 6 -8 16 -6 23 3 7
-5 20 -17 29 -17 11 -23 27 -25 60 -1 25 -5 50 -8 55 -4 5 -2 20 2 33 12 31 6
46 -29 63 -29 16 -40 45 -16 45 6 0 2 8 -10 18 -13 9 -30 40 -39 67 -9 28 -26
58 -38 67 -13 11 -16 18 -8 18 8 0 22 -10 32 -22 17 -22 19 -22 26 -5 5 15 9
16 15 5 6 -9 9 -5 9 13 0 14 -11 36 -25 49 -30 28 -31 37 -5 45 23 7 25 24 7
49 -12 16 -16 17 -35 5 -28 -17 -40 -4 -18 20 16 18 16 22 2 50 -9 16 -16 50
-16 74 0 42 -23 99 -71 174 -19 30 -19 34 -4 56 14 22 14 26 0 37 -22 19 -18
30 12 30 25 0 26 0 8 20 -14 15 -15 20 -4 20 8 0 -5 19 -28 41 -28 26 -43 49
-43 65 0 29 25 32 33 4 3 -11 11 -20 18 -20 7 0 9 3 6 7 -4 3 -2 12 4 20 16
18 -6 43 -37 43 -16 0 -24 6 -24 18 0 10 -8 28 -17 42 -11 16 -13 25 -5 28 6
2 8 10 5 19 -5 12 -1 14 17 8 16 -5 21 -4 18 6 -3 8 -14 15 -26 17 -29 4 -49
41 -31 54 12 8 12 10 0 15 -7 3 -22 14 -32 24 -11 11 -21 14 -24 8 -13 -20
-25 4 -25 48 0 39 -2 44 -15 33 -13 -10 -15 -9 -15 9 0 12 7 36 16 53 18 36
11 83 -11 74 -8 -3 -22 -9 -30 -12 -10 -4 -15 0 -15 14 0 11 -3 28 -7 38 -4
12 -3 15 5 10 7 -4 12 -4 12 -1 0 11 -50 109 -76 148 -27 41 -16 52 13 12 40
-57 52 -70 58 -63 4 3 1 16 -5 28 -11 20 -10 21 9 15 43 -13 13 41 -38 70 -10
6 -12 2 -6 -14 14 -46 -40 -6 -69 51 -18 36 -19 118 -2 158 8 18 -27 60 -50
60 -12 0 -14 -5 -9 -17 12 -29 11 -56 -2 -60 -8 -3 -13 5 -13 21 0 14 -13 39
-30 57 -36 41 -56 89 -35 89 8 0 19 9 25 20 9 17 7 22 -15 30 -14 5 -25 16
-25 25 0 10 -10 15 -27 15 -16 0 -38 8 -51 18 -20 16 -22 21 -12 47 10 27 9
32 -16 52 -15 12 -40 46 -54 75 -16 31 -33 53 -43 53 -22 0 -64 42 -148 151
-41 52 -78 94 -84 94 -7 0 -22 11 -35 25 -23 24 -23 26 -5 39 19 14 14 53 -5
41 -5 -3 -10 1 -10 11 0 13 -3 14 -15 4 -16 -13 -18 -11 -29 41 -8 36 -65 105
-83 101 -13 -3 -15 3 -9 30 l6 33 -16 -24 -17 -23 -49 78 c-28 44 -61 91 -75
106 -14 15 -31 37 -37 50 -6 12 -22 28 -35 34 -16 8 -19 13 -9 17 7 3 4 6 -8
6 -27 1 -44 21 -65 75 -9 22 -23 42 -31 44 -40 8 -648 -664 -648 -717 0 -16
-155 -244 -177 -262 -17 -13 -17 -12 0 13 19 31 21 38 8 38 -16 0 -101 -95
-101 -114 0 -10 -13 -34 -30 -53 -31 -35 -38 -53 -20 -53 20 0 9 -23 -26 -58
-83 -83 -131 -157 -244 -373 -37 -70 -63 -132 -59 -136 5 -5 -2 -24 -14 -43
-60 -90 -72 -114 -53 -107 23 9 19 -2 -54 -157 -115 -241 -210 -491 -270 -708
-16 -57 -38 -134 -50 -173 -12 -40 -22 -101 -23 -142 -2 -58 -4 -68 -13 -51
-9 16 -12 -1 -17 -88 -4 -82 -16 -149 -47 -269 -27 -104 -42 -184 -43 -230 -2
-53 -6 -74 -20 -85 -9 -8 -39 -55 -65 -105 -33 -63 -53 -90 -65 -89 -13 1 -17
-7 -18 -40 -1 -39 -1 -39 -9 -12 -5 15 -7 119 -4 230 4 191 6 208 41 345 33
132 35 145 20 156 -30 22 -24 107 17 250 213 738 340 1098 510 1450 102 210
182 351 299 523 49 73 87 135 84 139 -4 3 5 19 19 35 13 17 32 57 41 90 15 53
24 67 77 112 130 111 155 141 120 148 -12 2 -8 14 22 53 74 99 271 310 433
466 l166 159 -30 26 c-20 16 -26 27 -17 30 19 9 14 33 -6 27 -20 -5 -218 128
-297 200 -28 26 -93 80 -145 122 -108 88 -132 113 -124 137 4 12 -6 23 -35 38
-47 24 -61 25 -61 6 0 -10 -31 4 -91 40 -105 63 -188 106 -260 135 -29 11
-129 57 -223 103 -94 46 -245 114 -336 151 -91 36 -225 91 -298 122 -73 30
-135 53 -138 50 -3 -3 -27 1 -52 9 -26 7 -56 14 -67 14 -17 0 -16 -3 10 -26
22 -18 24 -24 10 -19 -11 4 -78 23 -150 42 -79 22 -141 45 -157 58 -40 34
-183 58 -296 49 -59 -4 -96 -3 -108 4 -15 9 -6 11 46 12 51 0 62 3 52 13 -9 8
-56 12 -157 12 -79 1 -147 4 -151 8 -4 4 15 7 41 7 79 0 40 20 -66 35 -52 7
-96 11 -98 9 -2 -2 7 -13 20 -24 l24 -21 -45 5 c-111 14 -462 37 -468 32 -3
-4 -1 -11 5 -17 8 -8 8 -20 -2 -43 -27 -67 -28 -76 -6 -76 29 0 35 -34 17
-110 -11 -49 -15 -144 -17 -393 l-2 -328 22 -15 22 -16 -26 -33 c-31 -41 -32
-55 -4 -55 21 0 22 -3 14 -72 -4 -40 -9 -122 -11 -182 -2 -61 -8 -114 -13
-119 -4 -4 -2 -33 5 -65 11 -48 11 -63 -2 -106 -9 -28 -18 -57 -20 -64 -2 -8
-13 -16 -25 -19 -23 -6 -22 -38 1 -38 11 0 17 -18 24 -65 9 -70 12 -273 5
-382 -4 -72 2 -88 26 -68 13 11 15 6 15 -38 0 -32 -5 -54 -15 -62 -21 -17 -19
-53 5 -83 11 -14 20 -31 20 -39 -1 -8 -6 -6 -15 6 -11 15 -18 17 -26 9 -9 -9
-6 -19 10 -39 11 -15 21 -34 21 -43 -1 -14 -2 -14 -11 2 -14 24 -29 12 -29
-24 0 -26 3 -29 20 -24 27 8 27 26 -14 -515 -5 -78 -29 -173 -43 -178 -7 -2
-13 4 -13 13 0 14 -3 15 -15 5 -21 -18 -19 -47 6 -60 15 -8 24 -8 34 0 10 8
15 4 24 -21 6 -18 20 -38 30 -46 26 -18 34 -61 21 -114 -6 -24 -15 -116 -20
-204 -11 -190 -18 -237 -35 -247 -10 -6 -9 -16 6 -48 22 -46 25 -133 5 -152
-11 -11 -11 -17 3 -38 24 -37 23 -198 -2 -223 -10 -10 -16 -26 -13 -35 3 -9
10 -45 17 -79 10 -54 9 -66 -4 -87 -15 -22 -14 -29 7 -100 13 -42 19 -73 14
-70 -6 4 -5 -3 1 -15 9 -16 8 -35 -5 -84 -18 -67 -15 -100 10 -91 11 4 13 0 9
-16 -3 -12 4 -55 17 -95 26 -83 22 -105 -16 -105 -22 0 -25 -2 -14 -15 7 -8
21 -15 31 -15 13 0 19 -7 19 -21 0 -11 -5 -19 -12 -17 -6 2 -33 -20 -60 -49
-46 -51 -59 -71 -38 -58 15 10 12 -40 -6 -85 -18 -44 -13 -73 10 -64 12 5 14
-7 10 -71 l-4 -77 47 6 c121 15 226 18 219 7 -13 -21 4 -32 26 -16 12 8 32 12
44 9 18 -5 23 -1 29 25 4 17 16 38 28 46 24 17 51 20 42 5 -3 -5 1 -10 10 -10
9 0 14 -3 11 -8 -2 -4 30 -6 71 -3 61 3 78 0 85 -12 5 -9 15 -14 22 -11 8 3
24 0 36 -6 17 -9 24 -9 30 -1 5 9 30 9 96 1 49 -5 133 -10 186 -10 66 0 111
-5 138 -16 31 -12 46 -14 70 -6 21 8 30 8 30 0 0 -6 7 -7 18 -3 9 4 38 15 65
25 44 17 47 17 47 1 0 -36 22 -42 56 -16 26 20 33 22 38 10 8 -22 65 -19 122
7 51 22 102 26 167 14 35 -7 37 -5 37 19 0 14 4 25 10 25 5 0 7 7 4 15 -8 19
5 19 30 0 17 -13 18 -15 3 -15 -9 0 -17 -6 -17 -13 0 -20 199 -22 282 -1 59
14 70 14 100 1 37 -16 128 -37 163 -37 14 0 25 7 28 18 5 20 44 32 103 32 20
0 37 6 42 16 12 21 197 33 231 15 12 -7 52 -14 88 -16 37 -2 70 -9 74 -16 9
-15 102 -15 107 0 2 6 16 11 30 10 23 0 24 -2 8 -8 -24 -9 -13 -16 39 -25 38
-6 39 -6 20 10 -20 16 -19 16 5 8 35 -12 222 -5 296 10 65 14 174 3 174 -17 0
-6 7 -19 16 -28 13 -14 21 -16 35 -8 14 7 19 6 19 -2 0 -8 12 -9 38 -5 67 12
72 16 66 40 -6 27 19 30 86 10 32 -10 62 -11 105 -5 33 5 66 6 73 4 21 -9 13
-23 -13 -23 -13 0 -45 -10 -69 -22 -43 -21 -44 -22 -25 -35 42 -30 -14 -46
-61 -17 -14 8 -17 13 -7 10 12 -4 17 -2 15 6 -11 33 -117 13 -155 -29 -28 -30
-28 -33 -2 -33 18 0 19 -3 9 -15 -10 -12 -37 -13 -158 -8 -81 3 -156 9 -167
14 -17 7 -16 8 8 8 16 1 26 5 23 10 -3 5 12 4 35 -1 44 -12 53 -7 63 34 5 21
1 30 -16 42 -32 23 -56 20 -113 -14 -55 -32 -109 -39 -119 -15 -17 44 -186
-57 -186 -111 0 -13 -3 -12 -22 0 -13 8 -74 21 -137 28 -73 8 -115 17 -118 25
-3 7 -11 13 -17 13 -15 0 -71 -58 -79 -83 -5 -14 -14 -16 -48 -11 -31 5 -40 4
-35 -4 5 -8 0 -12 -13 -12 -11 0 -23 -5 -26 -11 -5 -7 -13 -5 -24 5 -13 12
-20 13 -29 4 -18 -18 -16 16 4 53 8 17 13 37 10 45 -6 14 -125 78 -133 71 -8
-9 -4 -151 7 -186 5 -19 8 -36 6 -39 -3 -2 -18 6 -34 18 -30 23 -43 23 -127 5
-24 -5 -27 -4 -15 5 12 9 6 10 -27 6 -42 -6 -43 -6 -33 20 23 59 -1 69 -77 35
-40 -18 -82 -65 -70 -77 3 -4 27 1 53 10 55 18 64 19 64 7 0 -5 -16 -15 -36
-21 -19 -7 -38 -18 -41 -26 -6 -15 -56 -18 -88 -4 -11 5 -14 9 -7 9 19 1 14
21 -6 21 -10 0 -23 5 -30 12 -9 9 9 30 74 91 46 44 89 87 94 96 8 15 3 17 -36
16 -53 -3 -91 -34 -156 -128 -32 -48 -42 -56 -54 -46 -8 6 -14 27 -14 45 0 43
-26 46 -61 8 -66 -72 -165 -99 -190 -51 -17 32 -17 32 -44 7 l-25 -23 0 31 c0
18 -4 32 -8 32 -14 0 -32 -23 -32 -42 0 -24 -10 -23 -54 7 -20 14 -39 25 -42
25 -3 0 -4 -15 -2 -32 3 -31 1 -33 -29 -36 -38 -4 -38 -4 -19 34 10 20 12 47
9 84 l-6 54 -74 -79 c-59 -64 -72 -75 -67 -53 l6 27 -32 -16 c-40 -19 -202
-30 -233 -15 -50 24 -88 23 -119 -3 -16 -14 -37 -25 -46 -25 -11 1 -6 7 13 17
37 20 20 28 -40 18 -29 -4 -50 -14 -59 -27 -14 -20 -16 -20 -40 -5 -22 15 -29
15 -67 2 -50 -18 -49 -18 -49 -2 0 15 101 44 118 33 6 -4 9 9 8 34 0 22 -4 40
-8 40 -23 0 -112 -42 -166 -79 l-63 -42 -57 12 c-31 7 -60 17 -64 23 -3 5 -14
11 -23 12 -28 4 -30 14 -13 45 9 16 13 29 8 29 -15 0 -70 -51 -70 -66 0 -10
-8 -12 -30 -8 -16 4 -36 2 -43 -4 -6 -6 -36 -20 -65 -31 -43 -17 -52 -18 -52
-6 0 8 -7 15 -16 15 -13 0 -15 -6 -10 -27 14 -56 19 -206 7 -199 -21 14 -31
-4 -15 -29 12 -18 13 -29 5 -43 -9 -18 -7 -21 24 -26 19 -4 41 -17 50 -29 17
-24 20 -51 5 -42 -5 3 -10 -1 -10 -10 0 -9 -3 -14 -8 -11 -4 2 -6 -30 -3 -71
3 -61 0 -78 -12 -85 -9 -5 -14 -15 -11 -22 3 -8 0 -24 -6 -36 -9 -17 -9 -24
-1 -30 9 -5 9 -28 2 -91 -6 -46 -11 -127 -11 -181 0 -62 -6 -114 -16 -143 -11
-35 -13 -54 -5 -75 6 -18 6 -30 0 -32 -5 -2 2 -31 15 -66 23 -57 23 -62 6 -62
-9 0 -23 -6 -29 -14 -9 -11 -6 -20 14 -44 20 -24 22 -31 10 -36 -22 -8 -19
-65 7 -122 22 -51 26 -102 14 -166 -7 -36 -5 -38 19 -38 14 0 25 -4 25 -10 0
-5 7 -7 15 -4 18 7 19 -5 1 -28 -16 -22 -30 -23 -22 -3 3 9 -1 15 -11 15 -12
0 -14 -7 -10 -27 3 -16 2 -56 -2 -89 -4 -39 -2 -83 5 -120 15 -68 18 -154 6
-154 -8 0 -32 -121 -32 -159 0 -10 8 -21 18 -24 21 -5 32 -44 32 -108 0 -26 4
-39 14 -39 24 0 37 -191 15 -231 -6 -11 -12 -48 -14 -82 -2 -34 -10 -75 -18
-92 -15 -31 -12 -95 4 -95 5 0 8 -15 8 -32 -1 -18 -3 -25 -6 -16 -5 18 -23 25
-23 9 0 -5 -3 -24 -6 -42 -6 -33 -6 -33 10 -14 17 20 17 20 10 -5 -4 -14 -10
-27 -14 -30 -8 -6 5 -142 24 -255 11 -64 12 -93 2 -139 -6 -32 -14 -54 -19
-50 -4 4 -16 -1 -27 -11 -15 -13 -17 -22 -9 -36 7 -15 6 -19 -5 -19 -12 0 -12
-7 -1 -51 13 -50 35 -88 35 -61 0 7 6 12 13 12 17 0 18 -35 1 -90 -10 -32 -11
-62 -5 -105 6 -40 5 -67 -2 -80 -10 -18 -12 -15 -18 22 -4 23 -15 56 -24 73
-16 30 -17 31 -35 15 -23 -21 -34 -6 -25 34 4 19 12 28 23 27 38 -3 22 99 -22
147 -30 33 -36 33 -36 5 l-1 -23 -18 22 c-15 18 -17 30 -10 65 4 24 8 89 9
145 0 57 4 105 10 108 10 6 13 -10 14 -79 1 -35 4 -40 31 -47 63 -18 85 47 39
115 -33 49 -44 115 -20 128 42 24 -54 188 -110 188 -13 0 -13 3 0 23 8 12 20
73 27 136 9 72 18 115 26 118 7 3 13 9 13 13 0 16 -53 72 -77 81 -21 8 -23 13
-17 50 5 31 4 40 -4 35 -8 -5 -12 0 -12 13 0 11 -5 23 -12 27 -8 5 -6 11 7 20
15 11 16 16 5 29 -10 12 -10 15 4 15 9 0 31 -7 47 -16 17 -8 37 -13 45 -10 15
6 78 125 70 133 -10 10 -147 4 -182 -7 -45 -15 -51 -9 -24 28 23 30 23 43 5
127 -5 24 -4 27 5 15 9 -12 10 -6 6 27 -6 42 -6 43 20 33 59 -23 69 1 35 77
-18 40 -65 82 -77 70 -4 -3 1 -27 10 -53 18 -54 19 -64 8 -64 -5 0 -17 18 -27
40 -10 22 -22 40 -27 40 -11 0 -10 71 2 90 6 10 10 11 10 3 0 -7 5 -13 10 -13
6 0 10 8 10 18 0 10 5 23 11 29 8 8 35 -14 101 -83 50 -52 94 -94 97 -94 4 0
7 21 6 46 -3 53 -34 91 -128 156 -48 32 -56 42 -46 54 6 8 27 14 45 14 44 0
44 18 1 67 -52 60 -67 89 -67 132 0 33 5 43 25 54 l26 13 -21 26 c-26 34 -26
35 10 30 17 -2 30 0 30 5 0 15 -23 33 -42 33 -24 0 -23 10 7 54 14 20 25 39
25 43 0 3 -16 2 -35 -1 -35 -7 -35 -7 -35 29 0 40 2 41 34 20 18 -12 37 -14
81 -9 l58 7 -79 74 c-52 49 -71 72 -56 68 22 -6 23 -5 16 17 -24 76 -34 231
-15 242 4 3 11 24 14 48 5 35 1 47 -19 71 -13 16 -23 38 -23 50 l2 22 4 -22
c2 -12 11 -27 20 -35 15 -12 16 -8 9 42 -4 37 -13 61 -27 73 -20 16 -20 19 -5
41 14 22 14 29 1 67 -18 50 -18 49 -2 49 15 0 44 -101 33 -118 -4 -6 9 -9 34
-8 22 0 40 4 40 7 0 23 -36 100 -75 160 l-46 71 12 57 c7 31 17 59 23 63 5 3
11 14 12 23 4 26 12 29 39 17 20 -9 25 -18 23 -39 -3 -32 17 -40 45 -19 15 11
17 22 12 46 -6 25 -9 29 -21 19 -8 -6 -14 -19 -15 -28 0 -10 -4 -6 -10 9 -13
32 -49 70 -66 70 -9 0 -11 8 -8 23 7 26 -42 140 -56 132 -5 -4 -6 1 -3 9 8 20
0 20 -75 1 -33 -9 -77 -15 -98 -13 -36 3 -38 2 -35 -24 3 -35 -10 -36 -28 -3
-19 35 -47 41 -74 16 -26 -25 -46 -27 -46 -6 0 9 -9 15 -24 15 -14 0 -28 4
-31 10 -3 5 -19 7 -34 4 -16 -3 -39 0 -51 6 -20 10 -25 10 -35 -3 -15 -20
-116 -28 -122 -9 -3 6 2 12 9 12 8 0 23 7 34 15 18 14 16 15 -23 12 -23 -2
-50 -10 -59 -18 -19 -15 -161 -22 -170 -7 -12 19 -68 7 -96 -19 -25 -24 -31
-26 -49 -15 -18 11 -23 11 -33 -4 -9 -12 -34 -19 -84 -23 -45 -4 -77 -13 -90
-24 -21 -19 -32 -22 -32 -6 0 5 17 17 37 26 l37 15 -24 13 -24 13 24 5 c17 3
12 5 -15 6 -23 0 -56 -7 -77 -18 -38 -21 -48 -19 -48 11 0 13 -8 18 -28 18
-38 0 -54 -17 -41 -42 15 -28 3 -35 -24 -12 -20 18 -36 20 -167 18 -103 -1
-161 -6 -202 -18 -56 -17 -58 -17 -87 5 -17 13 -34 20 -37 16 -9 -9 -22 -223
-28 -442 -3 -122 -11 -220 -26 -305 -21 -120 -39 -181 -40 -136 0 16 -3 17
-12 8 -8 -8 -16 -55 -19 -115 -4 -69 -13 -117 -27 -148 l-20 -45 24 -23 c13
-12 26 -38 30 -58 8 -41 -2 -153 -16 -185 -10 -22 -10 -22 -7 4 6 43 -12 21
-19 -23 -7 -45 -23 -62 -25 -27 -1 13 -7 -10 -15 -50 -16 -89 -28 -129 -91
-299 -28 -73 -53 -130 -56 -127 -12 12 -37 -18 -37 -45 0 -15 -22 -66 -50
-114 -52 -90 -57 -103 -40 -109 9 -3 -53 -123 -225 -433 -181 -328 -347 -574
-481 -716 -45 -47 -90 -101 -99 -120 -32 -62 -75 -118 -88 -114 -7 3 -26 -21
-45 -53 -25 -44 -178 -261 -197 -280 -2 -2 -1 5 2 17 8 30 -9 26 -59 -12 -31
-24 -49 -48 -65 -87 -19 -48 -25 -55 -52 -58 -18 -2 -35 -11 -42 -23 -8 -17
-5 -26 22 -57 18 -20 49 -44 69 -52 54 -22 291 -180 319 -213 13 -15 49 -45
80 -66 31 -21 65 -49 76 -61 18 -20 85 -60 101 -60 3 0 4 6 1 14 -9 22 5 27
30 11 21 -14 23 -14 23 0 0 25 13 18 65 -35 56 -57 53 -63 -11 -20 -32 23 -44
27 -44 16 0 -18 37 -45 115 -83 33 -16 85 -48 115 -71 30 -23 60 -42 65 -42 6
0 42 -20 80 -45 96 -62 161 -93 366 -169 209 -77 282 -108 329 -141 76 -52
444 -195 503 -195 14 0 27 5 29 11 2 7 27 5 78 -5 285 -56 352 -67 365 -56 10
8 53 6 162 -9 81 -12 230 -30 330 -41 99 -11 201 -26 225 -34 27 -9 113 -17
238 -21 119 -4 211 -12 236 -20 33 -11 68 -12 169 -4 71 5 135 15 142 21 8 6
48 12 91 14 59 2 67 1 35 -5 -24 -4 -46 -10 -49 -14 -9 -9 47 -9 156 0 81 6
84 7 55 20 -27 11 -19 12 80 11 98 -1 129 3 285 41 96 23 198 46 227 51 28 5
118 32 200 60 405 140 649 217 619 194 -18 -13 -14 -14 40 -14 49 0 67 5 104
30 46 31 66 38 55 20 -3 -5 -3 -10 1 -10 14 0 261 142 290 166 l29 25 -28 -4
c-45 -7 -39 8 13 33 27 13 47 26 45 31 -3 4 28 18 67 32 105 36 218 88 258
118 19 15 75 53 123 84 49 32 91 64 94 71 5 13 113 68 119 61 2 -2 -29 -27
-69 -57 -80 -60 -257 -213 -252 -218 1 -2 20 4 40 12 53 23 62 20 34 -10 -13
-14 -61 -43 -106 -65 -79 -38 -124 -53 -73 -24 22 12 23 14 8 20 -21 8 -109
-38 -264 -140 -97 -64 -204 -152 -204 -169 0 -4 23 5 51 20 28 14 54 23 57 20
3 -3 3 -7 1 -9 -2 -2 -23 -18 -46 -35 -23 -18 -73 -43 -110 -56 -37 -13 -120
-44 -183 -69 -229 -89 -642 -218 -656 -205 -2 2 28 14 66 27 39 12 68 26 66
30 -3 4 23 13 57 19 34 7 91 21 127 32 57 17 67 24 77 51 7 18 10 36 7 40 -19
32 -201 -19 -372 -105 -167 -84 -334 -135 -351 -108 -9 15 -119 -9 -279 -60
-195 -62 -313 -122 -296 -150 3 -5 -20 -5 -53 -1 -64 9 -106 9 -298 4 -168 -5
-484 9 -510 22 -11 5 -22 13 -25 17 -15 22 -286 -37 -296 -65 -6 -15 -27 -13
-151 11 -79 15 -132 18 -100 5 10 -4 -29 -6 -88 -5 -96 2 -109 4 -127 24 -18
19 -27 21 -75 15 -72 -9 -68 11 8 40 31 12 54 27 54 35 0 14 -127 69 -336 147
-56 21 -57 21 -77 2 -43 -39 -40 -136 4 -189 14 -16 21 -30 15 -30 -6 0 -55
22 -109 49 -120 60 -198 85 -327 107 -55 9 -113 22 -130 29 -30 13 -29 13 15
9 l45 -4 -45 16 c-25 8 -81 26 -125 39 -46 13 -74 25 -65 28 8 4 28 11 43 17
16 5 27 16 25 23 -2 6 -67 33 -144 59 -154 52 -324 85 -363 70 -21 -7 -13 -12
65 -40 49 -17 136 -45 194 -63 58 -17 110 -36 115 -41 14 -14 -49 -3 -155 28
-47 14 -96 23 -109 21 -15 -3 -66 17 -150 61 -69 36 -135 72 -146 80 l-20 14
20 -7 c86 -31 103 -22 26 15 -28 12 -64 37 -81 55 l-32 33 78 -19 c137 -33
323 -60 443 -65 l116 -4 -72 22 c-39 13 -82 33 -95 46 -44 40 -257 81 -520 98
-93 6 -99 7 -123 36 -30 36 -32 64 -5 73 11 3 20 10 20 14 0 14 -152 79 -249
106 -52 14 -116 37 -143 51 -27 14 -52 22 -57 20 -13 -8 -234 162 -249 191 -8
14 -11 35 -8 47 5 20 -4 27 -89 65 -112 51 -125 63 -90 81 14 7 25 17 25 21 0
21 -111 79 -160 84 -43 5 -70 17 -70 32 0 23 -51 83 -70 83 -11 0 -23 15 -34
45 -10 25 -22 43 -27 39 -33 -20 -48 -11 -86 54 -21 36 -85 116 -142 176 -57
61 -124 140 -150 175 -60 84 -91 113 -113 108 -15 -4 -18 2 -18 39 0 44 -7 53
-26 34 -15 -15 -34 9 -89 110 -26 47 -58 96 -71 110 -23 25 -23 27 -6 43 13
14 14 17 2 12 -44 -16 -120 130 -92 176 16 26 6 44 -16 27 -13 -11 -16 -11
-20 1 -3 8 -22 33 -42 55 -47 52 -115 165 -135 226 -9 26 -24 55 -35 65 -17
15 -19 15 -28 -1 -9 -15 -12 -13 -27 15 -10 20 -14 43 -10 58 6 27 -17 63 -40
63 -7 0 -18 7 -25 15 -8 9 -9 15 -2 15 6 0 14 -5 17 -10 7 -11 25 -4 25 10 0
5 -12 15 -27 22 -14 7 -29 20 -31 28 -4 13 -3 13 10 2 21 -17 32 1 18 28 -9
18 -14 19 -26 9 -20 -16 -25 -7 -58 86 -76 218 -109 333 -113 398 -3 65 -3 68
17 62 17 -5 20 -2 20 19 0 22 -4 26 -30 26 -16 0 -30 -5 -30 -12 0 -6 -10 -2
-23 10 -13 12 -30 22 -39 22 -32 0 -51 38 -58 122 -5 46 -16 103 -25 128 -19
51 -35 208 -21 213 5 2 -5 23 -23 47 -26 36 -32 53 -30 86 2 30 -3 49 -19 69
-12 15 -22 40 -21 54 1 14 -2 45 -6 69 -5 29 -4 42 4 42 16 0 14 18 -14 85
-21 52 -22 63 -11 80 12 17 9 28 -19 82 -18 35 -28 60 -21 56 6 -4 6 0 -2 9
-8 10 -12 40 -10 84 2 51 0 68 -9 66 -7 -1 -13 6 -13 17 0 10 -11 40 -26 66
-30 57 -29 89 4 93 31 5 28 20 -6 24 -15 2 -27 9 -27 16 0 6 3 12 7 13 4 0 28
21 53 46 35 34 43 48 34 54 -11 7 -11 14 0 41 20 48 20 84 0 80 -14 -2 -16 6
-13 50 1 29 6 73 10 97 5 34 4 47 -8 55 -10 7 -15 29 -16 66 0 30 -3 88 -7
129 -5 53 -4 72 4 67 18 -12 34 4 20 20 -6 8 -8 25 -5 39 5 20 3 25 -12 25
-25 0 -72 37 -72 57 0 9 3 14 6 10 11 -11 30 17 30 43 0 70 5 100 17 100 14 0
38 68 26 72 -5 2 -2 24 5 49 8 25 22 93 31 150 9 58 25 119 37 140 12 21 18
46 15 58 -3 12 -1 24 4 27 6 3 8 13 5 22 -18 66 -18 82 3 82 29 0 35 17 17 45
-20 30 -20 35 -2 35 18 0 27 51 16 92 -13 43 -13 98 0 98 6 0 10 11 10 25 0
14 5 25 10 25 6 0 10 7 10 15 0 8 -9 15 -20 15 -11 0 -20 5 -20 10 0 6 -7 10
-15 10 -22 0 -18 17 6 30 16 9 20 8 17 -2 -2 -8 2 -15 7 -16 6 -2 11 8 13 20
2 13 13 43 24 68 13 27 24 76 27 123 4 53 11 83 21 90 23 18 80 111 80 130 0
10 -4 17 -10 17 -13 0 -13 71 0 105 7 20 7 27 -4 31 -20 8 25 152 56 180 13
11 34 41 48 67 13 26 31 47 38 47 16 0 44 64 36 84 -3 8 -1 23 5 33 10 17 10
17 11 -1 0 -16 2 -16 16 -6 8 8 19 21 25 31 8 15 6 18 -8 13 -14 -4 -13 -1 5
15 12 11 30 44 38 73 9 29 20 58 24 63 4 6 17 40 28 78 19 64 76 149 84 125 3
-7 14 -9 32 -4 20 5 26 11 22 23 -4 10 -2 14 8 10 10 -4 17 7 25 38 14 57 14
55 -10 55 -16 0 -19 4 -13 22 6 21 41 57 56 58 10 0 48 75 48 95 0 8 2 15 4
15 2 0 12 3 21 7 15 5 16 3 6 -15 -6 -11 -11 -41 -11 -65 0 -40 2 -45 20 -40
26 7 26 -18 0 -42 -11 -10 -20 -13 -20 -7 0 21 -26 13 -38 -10 -17 -36 -24
-85 -13 -93 6 -3 11 -15 11 -26 0 -10 5 -19 10 -19 6 0 10 5 10 10 0 6 5 10
10 10 19 0 10 -34 -24 -84 -18 -28 -48 -75 -66 -103 -17 -29 -34 -53 -36 -53
-10 0 3 47 18 69 16 23 16 27 2 42 -24 27 -53 30 -76 7 -17 -17 -19 -28 -14
-72 8 -62 1 -85 -30 -97 -20 -7 -24 -15 -24 -54 0 -55 20 -107 50 -128 l22
-15 -22 -7 c-11 -4 -44 -42 -72 -86 -28 -43 -57 -79 -64 -79 -8 0 -14 -8 -14
-17 0 -23 36 -83 50 -83 15 0 12 -21 -7 -42 -10 -12 -13 -22 -8 -26 15 -11 12
-57 -3 -54 -10 2 -11 -4 -7 -19 6 -18 4 -19 -12 -11 -10 6 -27 20 -37 31 -11
12 -27 21 -36 21 -20 0 -100 -56 -100 -70 0 -15 40 -32 129 -55 l84 -21 -37
-22 c-37 -22 -37 -23 -30 -69 6 -44 6 -47 -9 -34 -15 12 -17 10 -17 -17 l0
-31 -35 20 c-31 19 -36 19 -41 5 -12 -32 5 -90 36 -121 l31 -30 -7 59 c-5 44
-4 57 4 52 7 -4 12 -13 12 -19 0 -7 7 -25 15 -40 13 -25 13 -33 -1 -65 -12
-29 -17 -34 -25 -22 -8 13 -11 13 -20 -2 -5 -10 -15 -18 -22 -17 -7 0 -41 45
-76 100 -63 97 -84 119 -74 79 3 -11 0 -20 -6 -20 -17 0 -13 -31 8 -66 10 -17
42 -53 70 -81 28 -28 51 -54 51 -58 0 -4 -22 -5 -50 -2 -60 7 -62 0 -20 -63
16 -25 30 -50 30 -57 0 -6 5 -13 10 -15 7 -2 7 -14 -1 -36 -10 -30 -23 -37
-57 -33 -10 2 -9 -6 3 -30 l17 -32 -31 6 c-41 8 -41 -10 0 -27 l31 -13 -35
-29 c-39 -31 -40 -48 -1 -38 22 6 24 3 24 -25 0 -35 -6 -38 -31 -15 -9 8 -43
18 -75 21 l-59 6 35 -39 c94 -104 93 -103 74 -98 -18 5 -19 -2 -19 -89 0 -74
-4 -99 -16 -113 -29 -32 -33 -78 -9 -99 11 -10 20 -25 20 -33 0 -9 -7 -6 -20
9 l-19 24 -1 -37 c0 -46 8 -68 26 -68 19 0 18 -15 -2 -34 -13 -13 -14 -22 -5
-48 14 -40 14 -48 -3 -48 -13 0 -26 41 -26 85 0 19 -7 24 -35 27 -25 3 -35 0
-35 -9 0 -24 30 -85 66 -136 35 -49 36 -51 23 -91 -7 -23 -12 -44 -11 -48 1
-5 -5 -8 -13 -8 -8 0 -15 -9 -15 -20 0 -24 -18 -26 -48 -4 -12 8 -22 11 -22 6
0 -17 41 -62 56 -62 10 0 13 -6 9 -18 -4 -15 27 -88 51 -120 1 -2 11 1 20 6
13 7 32 5 66 -9 60 -23 58 -23 58 1 0 28 34 33 110 16 49 -11 143 -15 388 -17
320 -2 323 -2 346 20 l23 22 31 -26 c37 -31 52 -32 52 -4 0 21 3 22 78 14 42
-4 124 -9 181 -11 58 -2 109 -8 113 -12 5 -5 34 -3 66 4 39 9 66 10 87 4 17
-5 44 -13 60 -18 17 -4 34 -18 40 -30 11 -25 40 -26 40 -2 0 11 18 17 65 24
65 9 291 12 385 6 60 -4 82 5 64 26 -10 12 -3 14 39 14 32 0 54 -5 62 -15 17
-21 53 -19 83 5 14 11 31 20 39 20 8 -1 6 -6 -6 -15 -15 -11 -17 -18 -9 -26 9
-9 19 -6 39 10 15 11 34 21 43 21 14 -1 14 -2 -2 -11 -24 -14 -12 -29 24 -29
26 0 29 3 24 21 -8 25 -54 25 355 -1 102 -6 201 -15 220 -20 19 -5 53 -12 74
-17 42 -9 59 -29 29 -35 -15 -4 -13 -7 10 -18 27 -13 30 -12 47 10 17 22 17
25 2 36 -14 10 -13 12 9 19 13 4 37 19 52 34 22 20 39 26 71 26 l43 0 -4 40
c-3 22 -16 58 -29 81 -12 22 -21 49 -18 60 3 10 -2 39 -11 63 -17 48 -20 74
-5 51 24 -39 18 32 -19 221 -21 112 -44 244 -51 293 -6 49 -17 103 -24 120
-14 33 -13 34 -33 -24 -4 -10 -8 -6 -15 13 -8 22 -6 42 7 83 25 81 15 142 -40
234 -47 78 -56 110 -29 110 11 0 13 6 9 19 -21 69 -43 160 -43 181 0 14 -16
72 -36 130 -19 58 -38 122 -41 144 -4 21 -17 49 -30 62 -12 12 -31 44 -41 69
-9 26 -35 77 -57 113 -29 48 -41 80 -44 117 l-4 50 36 -65 c19 -35 42 -71 50
-79 26 -26 18 6 -15 64 -16 28 -27 55 -23 58 3 4 -21 41 -53 84 -61 79 -173
275 -173 304 -1 9 -24 49 -53 90 -28 40 -53 83 -54 95 -7 67 -95 189 -180 249
-63 45 -86 77 -98 136 -3 15 -22 36 -50 55 -24 16 -91 85 -149 154 -123 147
-218 240 -245 240 -17 0 -49 47 -38 57 2 3 38 -25 80 -62 78 -68 91 -72 56
-20 -32 49 -23 51 21 4 l41 -44 -34 49 c-42 61 -129 143 -241 226 -88 65 -111
95 -86 111 11 7 -16 38 -103 122 -110 106 -116 114 -101 130 28 28 -7 22 -52
-8 -20 -15 -40 -23 -43 -20 -14 14 22 44 139 120 78 50 153 108 200 154 95 96
194 174 344 273 128 85 188 135 179 150 -7 11 24 48 39 48 6 0 2 -9 -8 -20
-10 -11 -16 -22 -13 -25 6 -6 100 59 270 185 145 109 187 131 280 154 43 10
97 35 154 70 49 30 90 53 92 51 2 -2 -4 -15 -14 -29 -9 -15 -15 -29 -12 -31 2
-3 38 16 79 42 40 25 68 39 60 29 -7 -9 -9 -16 -3 -16 14 0 231 127 257 151
34 30 275 118 275 100 0 -15 -36 -39 -70 -46 -19 -4 -52 -16 -72 -26 -45 -23
-61 -43 -21 -28 15 6 49 12 74 13 61 4 183 63 187 91 2 17 19 25 95 44 77 20
185 55 260 86 13 6 16 3 11 -9 -8 -20 2 -20 56 -1 62 22 71 18 25 -10 -30 -18
-35 -24 -20 -25 39 0 99 22 134 51 47 37 171 68 205 49 20 -10 34 -7 97 20 45
19 100 34 139 38 l65 6 -40 11 -40 12 53 12 c29 6 121 12 205 12 84 1 143 3
132 6 -11 3 -24 10 -30 15 -16 17 170 1 255 -22 81 -21 322 -30 288 -10 -10 6
-14 18 -11 30 4 15 11 18 29 14 12 -3 74 -9 136 -13z m-4496 -1926 c-11 -12
-29 -34 -39 -49 -10 -14 -22 -26 -27 -26 -5 0 9 28 32 61 26 40 43 57 48 49 4
-7 -2 -22 -14 -35z m234 -15 c29 -33 48 -60 44 -60 -11 0 -114 102 -114 112 0
20 22 3 70 -52z m-260 -80 c0 -5 -7 -10 -16 -10 -8 0 -12 5 -9 10 3 6 10 10
16 10 5 0 9 -4 9 -10z m-170 -35 c0 -9 -9 -15 -22 -15 -22 1 -23 1 -4 15 25
19 26 19 26 0z m-84 -31 c-5 -14 -9 -15 -19 -5 -9 9 -9 14 3 21 18 11 24 6 16
-16z m-101 -144 c-3 -5 -11 -10 -16 -10 -6 0 -7 5 -4 10 3 6 11 10 16 10 6 0
7 -4 4 -10z m85 -41 c0 -5 -4 -9 -10 -9 -5 0 -10 7 -10 16 0 8 5 12 10 9 6 -3
10 -10 10 -16z m-88 -41 c-7 -7 -12 -8 -12 -2 0 14 12 26 19 19 2 -3 -1 -11
-7 -17z m108 -4 c0 -15 -32 -34 -57 -34 l-28 1 35 18 c38 21 50 24 50 15z
m-163 -10 c-3 -3 -12 -4 -19 -1 -8 3 -5 6 6 6 11 1 17 -2 13 -5z m-123 -73 c3
-4 -6 -19 -19 -31 -26 -24 -29 -21 -19 18 6 22 28 30 38 13z m36 -71 c-24 -24
-34 -22 -24 3 5 14 33 28 42 21 2 -1 -6 -12 -18 -24z m100 3 c0 -5 -4 -15 -10
-23 -11 -18 -25 -7 -17 15 6 15 27 21 27 8z m-132 -73 c24 -20 27 -50 5 -57
-7 -3 -18 8 -23 23 -10 26 -11 26 -25 8 -17 -22 -19 -15 -5 20 11 31 18 32 48
6z m-94 -95 c-16 -25 -34 -25 -34 0 0 13 14 23 38 24 9 1 8 -6 -4 -24z m-47
-37 c-3 -8 -6 -5 -6 6 -1 11 2 17 5 13 3 -3 4 -12 1 -19z m185 -10 c-7 -7 -12
-8 -12 -2 0 14 12 26 19 19 2 -3 -1 -11 -7 -17z m-51 -14 c23 -21 25 -40 4
-48 -8 -3 -15 -17 -15 -31 0 -14 -4 -25 -10 -25 -5 0 -10 -7 -10 -15 0 -26
-19 -16 -26 13 -3 15 -8 33 -10 41 -2 8 5 20 16 28 25 18 28 48 3 38 -45 -18
-53 -18 -53 5 0 21 4 22 41 17 22 -3 49 -13 60 -23z m-171 -34 c0 -5 -4 -10
-10 -10 -5 0 -10 5 -10 10 0 6 5 10 10 10 6 0 10 -4 10 -10z m38 -107 c-5 -25
-28 -28 -28 -4 0 12 6 21 16 21 9 0 14 -7 12 -17z m42 -53 c0 -5 -2 -10 -4
-10 -3 0 -8 5 -11 10 -3 6 -1 10 4 10 6 0 11 -4 11 -10z m1801 -113 c-8 -8
-11 -7 -11 4 0 20 13 34 18 19 3 -7 -1 -17 -7 -23z m-1900 -20 c-10 -9 -11 -8
-5 6 3 10 9 15 12 12 3 -3 0 -11 -7 -18z m-161 -23 c0 -8 -4 -14 -10 -14 -5 0
-10 9 -10 21 0 11 5 17 10 14 6 -3 10 -13 10 -21z m80 -294 c0 -5 -2 -10 -4
-10 -3 0 -8 5 -11 10 -3 6 -1 10 4 10 6 0 11 -4 11 -10z m-128 -92 c-9 -9 -12
-7 -12 12 0 19 3 21 12 12 9 -9 9 -15 0 -24z m98 -18 c0 -11 -4 -20 -10 -20
-5 0 -10 9 -10 20 0 11 5 20 10 20 6 0 10 -9 10 -20z m-50 -39 c0 -20 -6 -30
-20 -34 -23 -6 -26 12 -10 44 15 28 30 23 30 -10z m0 -57 c0 -8 -4 -12 -10 -9
-5 3 -10 10 -10 16 0 5 5 9 10 9 6 0 10 -7 10 -16z m2570 -449 c11 -25 23 -45
28 -45 5 0 14 -12 21 -27 9 -20 9 -28 0 -34 -8 -5 -10 -33 -7 -98 3 -51 4 -91
3 -89 -2 2 -17 55 -34 118 -31 120 -48 220 -37 220 4 0 15 -20 26 -45z m119
-457 c1 -10 -3 -18 -9 -18 -5 0 -10 17 -9 38 0 30 2 33 9 17 5 -11 9 -28 9
-37z m-2969 -104 c0 -2 -9 -4 -19 -4 -23 0 -35 28 -20 46 10 12 14 10 25 -12
8 -14 14 -28 14 -30z m11070 -294 c0 -5 -4 -10 -10 -10 -5 0 -10 5 -10 10 0 6
5 10 10 10 6 0 10 -4 10 -10z m-11207 -85 c2 -14 2 -24 -2 -23 -3 2 -18 10
-33 17 -36 18 -36 31 1 31 23 0 30 -5 34 -25z m11360 -549 c20 -15 22 -26 5
-26 -7 0 -24 -12 -40 -26 l-27 -27 10 39 c17 60 21 63 52 40z m-3812 -267 c-9
-23 -10 -23 -10 -2 -1 12 2 30 6 40 6 15 8 15 11 2 1 -8 -2 -26 -7 -40z m2726
-64 c8 -22 3 -23 -36 -13 -26 7 -31 12 -20 19 22 14 49 11 56 -6z m523 -25 c0
-15 -29 -19 -40 -5 -8 10 -8 14 2 18 16 5 38 -2 38 -13z m-230 -17 c0 -8 -33
-32 -44 -33 -6 0 -2 6 9 13 10 8 15 19 11 25 -5 8 -2 10 8 6 9 -3 16 -9 16
-11z m340 13 c0 -2 -7 -6 -15 -10 -8 -3 -15 -1 -15 4 0 6 7 10 15 10 8 0 15
-2 15 -4z m-1240 -16 c0 -5 -2 -10 -4 -10 -3 0 -8 5 -11 10 -3 6 -1 10 4 10 6
0 11 -4 11 -10z m265 -9 c-3 -6 -11 -11 -17 -11 -6 0 -6 6 2 15 14 17 26 13
15 -4z m-517 -3 c-3 -7 -13 -15 -24 -17 -16 -3 -17 -1 -5 13 16 19 34 21 29 4z
m596 -3 c18 -14 17 -15 -22 -15 -39 0 -51 8 -35 23 11 11 37 7 57 -8z m421 5
c3 -5 2 -10 -4 -10 -5 0 -13 5 -16 10 -3 6 -2 10 4 10 5 0 13 -4 16 -10z
m-290 -10 c11 -5 14 -9 7 -9 -8 -1 -12 -11 -10 -27 2 -20 -3 -28 -20 -35 -30
-12 -41 15 -17 41 18 19 17 20 -11 21 -29 1 -29 1 -4 9 32 10 31 10 55 0z
m105 0 c0 -5 8 -10 17 -10 9 0 14 -2 11 -5 -3 -3 -25 -3 -49 1 -34 6 -39 9
-24 15 28 11 45 11 45 -1z m614 4 c9 -3 13 -10 10 -15 -8 -14 -31 -11 -38 6
-6 16 3 19 28 9z m-889 -68 c10 -25 14 -53 10 -65 -6 -19 -12 -21 -41 -15 -26
5 -40 2 -54 -11 -11 -10 -20 -14 -20 -8 0 6 -12 8 -26 5 -22 -4 -25 -2 -18 10
16 28 72 69 79 58 8 -13 52 -13 60 0 3 5 -9 17 -27 26 -30 16 -31 17 -13 30
28 21 32 18 50 -30z m535 34 c0 -5 -7 -10 -16 -10 -8 0 -12 5 -9 10 3 6 10 10
16 10 5 0 9 -4 9 -10z m93 -30 c-6 -21 -18 -26 -28 -11 -4 7 17 28 32 31 0 0
-1 -9 -4 -20z m585 8 c-5 -15 -123 -31 -153 -21 -13 5 7 11 60 19 44 6 84 12
88 13 5 0 7 -5 5 -11z m-1418 -17 c0 -13 -27 -21 -45 -15 -8 4 -12 10 -9 15 7
12 54 12 54 0z m546 -20 c-10 -16 -45 -19 -57 -5 -9 12 -5 14 25 14 21 0 35
-4 32 -9z m209 -5 c21 -8 41 -20 44 -27 2 -8 -2 -10 -13 -6 -10 4 -25 7 -34 7
-10 0 -23 9 -30 20 -7 11 -11 20 -10 20 2 0 21 -7 43 -14z m520 -16 c-3 -5
-12 -7 -20 -3 -21 7 -19 13 6 13 11 0 18 -4 14 -10z m-2050 -20 c-3 -5 -16
-10 -28 -10 -18 0 -19 2 -7 10 20 13 43 13 35 0z m555 1 c0 -5 -9 -7 -20 -4
-11 3 -20 7 -20 9 0 2 9 4 20 4 11 0 20 -4 20 -9z m180 -7 c0 -8 -5 -12 -10
-9 -6 4 -8 11 -5 16 9 14 15 11 15 -7z m-1493 -26 c-3 -7 -5 -2 -5 12 0 14 2
19 5 13 2 -7 2 -19 0 -25z m1820 16 c-3 -3 -12 -4 -19 -1 -8 3 -5 6 6 6 11 1
17 -2 13 -5z m-1097 -41 c0 -10 -110 -53 -110 -43 0 4 7 10 15 14 8 3 15 9 14
13 -3 19 3 23 41 23 22 0 40 -3 40 -7z m185 -12 c3 -5 1 -12 -5 -16 -5 -3 -10
1 -10 9 0 18 6 21 15 7z m-2059 -67 c0 -1 -16 -4 -34 -7 l-32 -7 21 43 22 42
12 -35 c7 -19 12 -35 11 -36z m1923 35 c-8 -5 -21 -9 -29 -9 -12 1 -11 4 4 15
10 8 23 12 29 8 5 -3 3 -9 -4 -14z m-1415 -45 c13 -5 12 -9 -9 -26 -26 -20
-45 -17 -45 7 0 20 27 29 54 19z m-2564 -24 c0 -5 14 -22 30 -37 17 -14 29
-28 27 -29 -5 -6 -81 18 -95 28 -10 9 -9 15 5 29 20 20 33 24 33 9z m-1170
-34 c0 -3 -4 -8 -10 -11 -5 -3 -10 -1 -10 4 0 6 5 11 10 11 6 0 10 -2 10 -4z
m1295 -16 c3 -5 2 -10 -4 -10 -5 0 -13 5 -16 10 -3 6 -2 10 4 10 5 0 13 -4 16
-10z m-950 -20 c3 -5 -1 -10 -9 -10 -9 0 -16 5 -16 10 0 6 4 10 9 10 6 0 13
-4 16 -10z m7148 -912 c-31 -9 -28 -11 -37 25 l-7 28 35 -23 35 -23 -26 -7z
m-3585 -235 c7 -37 33 -128 57 -202 44 -139 60 -201 52 -201 -8 0 -157 477
-157 501 1 36 37 -38 48 -98z m-2166 -26 c-37 -11 -37 -11 -46 26 l-7 28 43
-22 43 -23 -33 -9z m5618 -116 c0 -10 -7 -24 -15 -31 -8 -7 -15 -9 -15 -4 0 5
-3 19 -6 32 -5 18 -2 22 15 22 14 0 21 -6 21 -19z m-3299 -247 c12 -61 4 -69
-11 -13 -6 24 -14 53 -17 64 -4 16 -3 17 7 8 7 -6 16 -33 21 -59z m-2366 -123
c3 -10 3 -25 -1 -34 -5 -13 -8 -13 -26 5 -21 21 -18 48 6 48 8 0 17 -8 21 -19z
m5629 -200 c4 -5 -3 -7 -14 -4 -23 6 -26 13 -6 13 8 0 17 -4 20 -9z m-3250
-133 c8 -21 13 -38 11 -38 -5 0 -45 80 -45 89 0 13 20 -17 34 -51z m72 -60
c13 -27 18 -52 14 -68 -5 -22 -7 -20 -22 20 -25 70 -30 90 -21 90 5 0 18 -19
29 -42z m83 -318 l0 -25 -23 29 c-13 16 -27 41 -30 55 -3 14 -8 37 -12 51 -3
16 8 4 30 -30 20 -30 35 -66 35 -80z m2822 50 c15 0 10 -46 -6 -60 -13 -11
-15 -5 -14 41 1 30 3 46 6 37 2 -10 9 -18 14 -18z m-2781 -37 c-1 -11 -40 37
-40 49 0 6 9 -1 20 -15 11 -14 20 -29 20 -34z m-2437 20 c-7 -2 -19 -2 -25 0
-7 3 -2 5 12 5 14 0 19 -2 13 -5z m5157 -60 c-1 -24 -2 -26 -11 -10 -5 9 -7
22 -4 27 10 17 15 11 15 -17z m100 -17 c0 -8 -4 -18 -10 -21 -5 -3 -10 3 -10
14 0 12 5 21 10 21 6 0 10 -6 10 -14z m-125 -96 c3 -5 -1 -10 -9 -10 -9 0 -16
5 -16 10 0 6 4 10 9 10 6 0 13 -4 16 -10z m-2380 -290 c32 -57 4 -62 -38 -6
l-25 32 25 -1 c16 0 30 -9 38 -25z m2455 -11 c0 -11 -4 -17 -10 -14 -5 3 -10
13 -10 21 0 8 5 14 10 14 6 0 10 -9 10 -21z m-170 -13 c0 -2 -7 -9 -15 -16
-13 -11 -14 -10 -9 4 5 14 24 23 24 12z m-2190 -31 c6 -8 9 -19 5 -25 -4 -6 6
-28 22 -48 41 -52 43 -56 52 -112 10 -65 -1 -56 -34 27 -14 38 -37 87 -51 110
-13 23 -24 46 -24 52 0 16 15 14 30 -4z m-60 -145 c9 -19 5 -17 -18 10 -31 35
-31 35 -32 10 -1 -20 -6 -14 -26 29 -13 29 -24 56 -24 58 0 11 88 -84 100
-107z m-2866 35 c3 -8 11 -14 18 -13 9 2 14 -12 16 -39 4 -59 -11 -54 -35 12
-12 30 -17 55 -13 55 4 0 10 -7 14 -15z m5016 5 c0 -5 -5 -10 -11 -10 -5 0 -7
5 -4 10 3 6 8 10 11 10 2 0 4 -4 4 -10z m56 -46 c-3 -9 -6 -18 -6 -20 0 -2 -7
-4 -15 -4 -18 0 -19 12 -3 28 17 17 31 15 24 -4z m-105 -60 c6 -31 3 -43 -12
-57 -37 -34 -21 -45 34 -22 14 6 17 2 17 -19 0 -14 -3 -26 -7 -26 -26 0 -83
23 -97 39 -17 19 -17 21 4 49 12 17 19 35 16 41 -4 6 -2 11 3 11 6 0 11 7 11
16 0 32 25 6 31 -32z m-2022 4 c42 -68 43 -72 7 -36 -34 36 -45 58 -28 58 4 0
13 -10 21 -22z m-2849 -28 c-1 -12 -4 -11 -15 4 -8 10 -12 23 -8 29 7 11 23
-12 23 -33z m-97 -23 c-8 -13 -23 3 -23 26 0 20 0 20 14 2 8 -11 12 -23 9 -28z
m5097 -13 c0 -8 -5 -12 -10 -9 -6 4 -8 11 -5 16 9 14 15 11 15 -7z m-230 -54
c0 -5 -4 -10 -10 -10 -5 0 -10 5 -10 10 0 6 5 10 10 10 6 0 10 -4 10 -10z
m177 -12 c-3 -8 -6 -5 -6 6 -1 11 2 17 5 13 3 -3 4 -12 1 -19z m-19 -24 c-2
-9 -13 -21 -26 -25 -17 -7 -21 -6 -16 4 22 38 48 51 42 21z m-4998 -18 c0 -11
-19 -15 -25 -6 -3 5 1 10 9 10 9 0 16 -2 16 -4z m3016 -41 c7 -19 14 -40 14
-47 -1 -15 -24 26 -34 60 -11 35 3 26 20 -13z m1875 -2 c10 -27 11 -28 26 -8
15 19 15 19 8 -5 -13 -45 -24 -50 -50 -25 -25 22 -32 45 -18 58 13 13 24 7 34
-20z m-121 -82 c0 -17 -12 -41 -21 -41 -10 0 -12 33 -2 43 9 10 23 9 23 -2z
m90 -31 c-6 -12 -14 -19 -17 -16 -4 3 -13 0 -22 -6 -9 -7 -3 2 13 20 32 35 44
36 26 2z m50 -45 c0 -18 -5 -25 -20 -25 -25 0 -25 8 -2 31 22 23 22 23 22 -6z
m-4702 -81 c-10 -10 -28 6 -28 24 0 15 1 15 17 -1 9 -9 14 -19 11 -23z m4437
10 c14 -6 12 -9 -11 -19 -42 -17 -48 -18 -53 -4 -2 7 1 9 8 5 6 -4 14 0 17 8
7 18 14 19 39 10z m-1303 -32 c12 -15 27 -28 32 -29 11 -2 60 -83 53 -89 -2
-2 -34 29 -71 71 -40 43 -61 75 -53 75 8 0 26 -13 39 -28z m1428 14 c0 -3 -4
-8 -10 -11 -5 -3 -10 -1 -10 4 0 6 5 11 10 11 6 0 10 -2 10 -4z m-70 -26 c0
-5 -5 -10 -11 -10 -5 0 -7 5 -4 10 3 6 8 10 11 10 2 0 4 -4 4 -10z m-1449 -27
l24 -26 -27 19 c-15 10 -28 22 -28 27 0 12 5 8 31 -20z m1379 -19 c0 -14 -3
-14 -15 -4 -8 7 -15 14 -15 16 0 2 7 4 15 4 8 0 15 -7 15 -16z m82 -25 c5 -3
3 -9 -6 -12 -12 -5 -16 0 -15 21 0 16 3 21 6 12 3 -8 10 -18 15 -21z m-4642
-9 c0 -11 -4 -20 -9 -20 -5 0 -7 9 -4 20 3 11 7 20 9 20 2 0 4 -9 4 -20z
m3369 -151 l74 -94 -59 54 c-71 65 -94 93 -88 103 3 5 -9 27 -26 51 -56 74 15
-7 99 -114z m-94 7 c48 -64 59 -83 39 -68 -50 36 -111 106 -118 135 -10 44 6
30 79 -67z m-3125 14 c0 -5 -5 -10 -11 -10 -5 0 -7 5 -4 10 3 6 8 10 11 10 2
0 4 -4 4 -10z m4390 -14 c0 -8 -7 -16 -15 -20 -10 -4 -15 1 -15 14 0 11 7 20
15 20 8 0 15 -6 15 -14z m-86 -27 c-8 -14 -24 -10 -24 6 0 9 6 12 15 9 8 -4
12 -10 9 -15z m-4454 -24 c0 -2 -7 -5 -15 -9 -9 -3 -15 0 -15 9 0 9 6 12 15 9
8 -4 15 -7 15 -9z m60 -21 c0 -26 -17 -33 -26 -9 -8 20 3 48 16 40 5 -3 10
-17 10 -31z m4220 12 c0 -3 -4 -8 -10 -11 -5 -3 -10 -1 -10 4 0 6 5 11 10 11
6 0 10 -2 10 -4z m172 -18 c-7 -7 -12 -8 -12 -2 0 14 12 26 19 19 2 -3 -1 -11
-7 -17z m-159 -30 c-11 -13 -32 -41 -46 -62 -22 -33 -27 -37 -33 -22 -5 12 -1
22 9 27 8 5 25 25 37 44 12 19 29 35 38 35 13 0 12 -4 -5 -22z m-4279 -85 c16
-19 22 -34 16 -38 -13 -8 -13 -52 0 -60 5 -3 18 11 28 32 18 34 20 35 26 15 4
-11 16 -24 26 -27 27 -8 34 -41 16 -67 -16 -22 -16 -21 -16 20 l0 42 -41 -20
c-22 -12 -53 -20 -67 -18 -24 3 -27 7 -24 37 1 19 -4 44 -13 57 -9 13 -11 24
-7 24 5 0 7 12 4 26 -4 22 -2 25 10 18 9 -5 27 -23 42 -41z m3619 -11 c73 -55
62 -76 -24 -47 -27 9 -37 10 -25 2 27 -17 84 -70 66 -61 -8 4 -23 14 -32 22
-9 7 -22 11 -29 6 -7 -4 -10 -3 -6 3 4 6 0 16 -8 23 -9 7 -30 32 -47 54 -21
26 -24 34 -10 22 13 -11 22 -14 22 -7 0 9 5 9 23 0 21 -11 21 -11 -3 16 l-25
28 25 -13 c14 -7 46 -29 73 -48z m-3487 -59 c-7 -7 -26 7 -26 19 0 6 6 6 15
-2 9 -7 13 -15 11 -17z m3719 -53 c16 -16 25 -30 21 -30 -11 0 -66 43 -66 52
0 16 17 8 45 -22z m-3888 -62 c-3 -8 -6 -5 -6 6 -1 11 2 17 5 13 3 -3 4 -12 1
-19z m3686 -8 l-32 -29 82 -3 c74 -3 82 -5 82 -23 0 -12 -23 -37 -65 -68 -79
-58 -158 -135 -166 -159 -3 -10 -11 -17 -18 -16 -7 2 -36 -17 -64 -40 -72 -60
-70 -28 3 58 30 35 55 70 55 77 0 7 23 24 50 38 53 27 130 90 130 107 0 5 -34
-9 -75 -31 -41 -23 -77 -41 -82 -41 -4 0 9 17 30 38 27 28 36 45 34 67 -1 22
4 32 23 42 41 21 47 14 13 -17z m-3544 -57 c0 -27 -3 -43 -5 -36 -3 6 -16 9
-30 7 -19 -3 -26 1 -34 21 -6 15 -10 28 -10 31 0 11 35 2 52 -13 17 -15 18
-15 18 10 0 15 2 27 5 27 3 0 5 -21 4 -47z m3451 -7 c-33 -32 -32 -24 4 28 12
19 21 25 24 17 2 -7 -10 -27 -28 -45z m460 -26 c0 -5 -2 -10 -4 -10 -3 0 -8 5
-11 10 -3 6 -1 10 4 10 6 0 11 -4 11 -10z m-3910 -98 c-6 -2 -10 -11 -10 -19
0 -9 -2 -14 -5 -11 -3 3 -2 25 1 49 7 44 8 44 16 14 4 -18 4 -31 -2 -33z m76
-18 c-7 -19 -37 -18 -31 1 17 53 15 52 27 32 5 -10 7 -25 4 -33z m3184 7 c0
-13 -29 -35 -37 -28 -7 8 15 37 28 37 5 0 9 -4 9 -9z m-3340 -31 c0 -16 -2
-30 -5 -30 -8 0 -23 44 -18 53 10 17 23 5 23 -23z m100 -134 c0 -3 -4 -8 -10
-11 -5 -3 -10 -1 -10 4 0 6 5 11 10 11 6 0 10 -2 10 -4z m3100 -46 c0 -11
-116 -90 -132 -90 -16 0 -7 11 50 55 56 44 82 55 82 35z m-3214 -49 c-9 -17
-16 -34 -15 -38 0 -4 -4 -9 -10 -11 -17 -6 0 61 18 75 23 16 25 9 7 -26z m74
18 c0 -5 -4 -9 -10 -9 -5 0 -10 7 -10 16 0 8 5 12 10 9 6 -3 10 -10 10 -16z
m49 -44 c7 3 8 0 5 -9 -8 -20 -12 -20 -30 -2 -18 19 -18 32 1 16 8 -6 19 -9
24 -5z m2781 -14 c0 -5 -10 -11 -22 -14 -22 -6 -22 -6 -4 8 23 17 26 18 26 6z
m-2857 -35 c4 -10 0 -12 -14 -9 -22 6 -26 23 -5 23 8 0 16 -6 19 -14z m3102
-6 c-32 -21 -38 -21 -29 4 3 9 17 16 33 16 l26 0 -30 -20z m-6462 -140 c28
-16 70 -46 92 -66 l40 -36 -36 21 c-20 12 -47 21 -61 21 -33 0 -108 50 -108
72 0 25 12 23 73 -12z m3460 -47 c-7 -17 -19 -17 -26 1 -7 18 14 40 24 24 4
-6 5 -17 2 -25z m-48 -73 c-5 -16 -10 -19 -18 -11 -7 7 -6 15 3 26 17 20 24
13 15 -15z m2585 5 c0 -6 -117 -65 -127 -65 -4 1 21 16 57 35 72 38 70 37 70
30z m-436 -59 c-7 -19 -80 -59 -97 -53 -7 2 13 20 43 39 30 20 56 35 58 33 1
-1 0 -10 -4 -19z m-2254 -118 c0 -16 -3 -19 -11 -11 -6 6 -8 16 -5 22 11 17
16 13 16 -11z m55 -136 c4 -17 2 -23 -7 -20 -15 5 -31 123 -21 153 5 13 10 -2
15 -45 4 -36 10 -76 13 -88z m1458 -231 c17 -6 17 -8 -6 -18 -26 -12 -37 -8
-37 14 0 14 15 16 43 4z m-2803 -26 c0 -18 -5 -25 -20 -25 -24 0 -25 8 -3 32
21 23 23 23 23 -7z m2350 -9 c0 -11 -103 -37 -132 -34 -29 3 -25 5 32 20 68
16 100 21 100 14z m-115 -85 c-18 -16 -217 -63 -224 -53 -3 6 -17 12 -31 13
-14 2 21 13 80 26 111 22 191 29 175 14z m160 -12 c-27 -10 -68 -22 -90 -25
-38 -4 -37 -3 20 20 33 13 74 25 90 25 26 0 24 -2 -20 -20z m-434 -64 c-38
-17 -61 -19 -61 -6 0 10 28 18 70 19 22 1 21 0 -9 -13z"/>
<path d="M7234 13150 c-182 -10 -358 -27 -514 -51 -69 -11 -170 -24 -225 -29
-55 -5 -146 -18 -203 -30 -111 -22 -162 -25 -162 -11 0 5 16 12 36 16 45 8 35
20 -14 17 -90 -7 -136 -23 -167 -60 l-30 -35 45 7 c57 9 52 5 -50 -39 -47 -21
-98 -50 -115 -65 -47 -43 -137 -84 -347 -156 -315 -107 -420 -155 -673 -302
-60 -35 -164 -94 -230 -130 -66 -36 -160 -89 -209 -118 -49 -30 -97 -54 -106
-54 -10 0 -64 -46 -121 -103 -124 -122 -287 -256 -326 -266 -48 -13 -41 -42
21 -90 31 -23 64 -54 73 -69 10 -15 68 -81 130 -146 76 -80 113 -127 113 -142
0 -27 50 -96 130 -179 159 -166 264 -309 276 -374 5 -23 25 -56 56 -91 61 -68
228 -301 228 -317 0 -7 16 -34 36 -60 49 -64 93 -156 144 -298 42 -118 72
-187 93 -213 9 -12 12 -11 17 3 4 13 13 -1 30 -46 12 -35 61 -140 107 -233
116 -235 148 -337 108 -352 -21 -8 -19 -33 5 -72 14 -22 26 -32 36 -28 10 4
20 -5 30 -29 15 -37 20 -100 5 -77 -4 8 -11 -41 -14 -115 -9 -164 -7 -287 2
-253 7 23 8 24 14 5 13 -42 27 -194 27 -302 0 -126 10 -168 39 -160 17 4 19
-6 27 -132 4 -75 7 -209 6 -298 l-1 -163 86 0 c93 0 214 -18 225 -34 4 -6 23
-3 50 7 53 21 132 22 150 3 11 -11 17 -11 38 3 37 24 198 23 223 -2 10 -10 25
-16 33 -13 8 3 43 11 79 17 55 11 67 10 88 -4 22 -14 29 -14 67 -1 24 8 60 17
81 19 21 2 44 7 49 10 6 4 40 -1 75 -10 63 -17 102 -15 90 5 -4 6 6 10 24 10
17 0 55 9 86 21 71 27 99 23 103 -14 3 -23 6 -26 18 -16 8 6 14 20 14 30 0 13
7 19 21 19 11 0 19 -5 17 -12 -2 -6 20 -33 49 -60 51 -46 71 -59 58 -38 -10
15 40 12 85 -6 43 -18 73 -13 64 10 -4 11 7 14 61 12 53 -2 63 0 51 10 -9 6
-16 18 -16 26 0 8 -6 20 -12 27 -11 10 -10 11 5 6 21 -9 22 4 1 70 -8 28 -14
70 -12 95 3 44 2 45 -24 42 -35 -3 -36 15 -3 30 35 16 41 45 16 72 -25 26 -27
46 -6 46 9 0 15 9 15 24 0 14 5 28 10 31 6 3 7 17 4 30 -3 14 -1 38 4 55 9 23
8 31 -3 37 -19 11 -25 114 -7 120 6 3 12 -2 12 -9 0 -8 7 -23 15 -34 14 -18
15 -17 13 16 -1 19 -8 45 -16 58 -17 26 -25 169 -11 178 19 12 9 70 -16 94
-27 25 -33 55 -12 63 8 3 7 9 -6 19 -14 10 -21 35 -27 87 -5 42 -14 79 -24 90
-18 20 -20 31 -6 31 5 0 17 -17 26 -37 l15 -38 14 25 13 24 5 -24 c3 -17 5
-12 6 15 0 23 -7 56 -18 77 -21 38 -19 48 11 48 13 0 18 8 18 29 0 34 -19 54
-40 41 -33 -21 -42 0 -12 25 15 13 17 34 16 163 -1 105 -6 163 -18 204 -17 56
-17 58 3 85 17 23 19 34 12 60 -9 31 -9 32 16 22 23 -9 25 -8 19 15 -3 14 -1
26 5 28 13 4 -18 88 -33 88 -5 0 -8 19 -6 43 2 29 8 42 18 42 10 0 14 -8 12
-27 -2 -14 2 -29 7 -33 6 -3 11 -1 11 6 0 6 8 17 17 24 16 12 16 14 0 39 -10
14 -23 26 -30 26 -8 0 -12 19 -12 60 -1 33 3 60 7 60 4 0 8 10 8 22 0 20 1 21
20 3 19 -18 20 -17 20 3 0 12 -9 26 -20 32 -25 13 -28 70 -5 70 13 0 11 6 -6
29 -12 16 -19 37 -16 45 7 19 -8 22 -19 4 -14 -23 -21 25 -7 52 15 29 17 64 3
55 -22 -14 -8 37 19 67 29 33 34 47 32 81 -1 11 -9 17 -27 17 -22 0 -25 3 -20
23 3 12 6 30 6 39 0 10 6 15 13 13 9 -4 12 17 11 87 0 51 -4 108 -8 126 -5 20
-4 32 3 32 9 0 14 -26 23 -109 2 -14 9 -26 17 -29 10 -3 12 3 7 29 l-7 34 19
-22 c19 -22 20 -22 25 -3 7 25 -8 80 -28 105 -15 19 -15 19 -9 -7 4 -17 2 -28
-4 -28 -17 0 -24 18 -32 88 -10 75 1 112 50 174 32 40 36 63 18 103 -16 35
-25 31 -33 -15 -7 -41 -18 -56 -35 -45 -6 4 -4 15 6 30 12 19 13 31 5 62 -20
69 -11 154 13 134 7 -6 18 -4 30 4 18 13 18 16 3 39 -9 14 -14 32 -11 41 4 9
-2 25 -14 38 -11 12 -26 35 -32 51 -9 24 -7 32 7 48 24 27 28 253 5 281 -12
13 -17 58 -22 200 -4 100 -12 195 -18 210 -7 16 -12 41 -12 57 0 23 3 27 20
23 22 -6 22 -6 25 50 2 29 -1 37 -11 33 -17 -6 -18 16 -3 31 16 16 30 176 16
184 -5 4 -7 15 -3 25 4 10 1 21 -5 25 -10 6 -8 37 5 136 9 70 18 165 19 209 1
45 6 80 10 77 5 -3 4 5 -3 17 -13 24 -9 71 11 136 21 70 14 74 -103 72 -57 0
-166 -4 -244 -8z m-2346 -2856 c-4 -3 -12 5 -18 18 -12 22 -12 22 6 6 10 -10
15 -20 12 -24z m2592 -1074 c0 -5 -2 -10 -4 -10 -3 0 -8 5 -11 10 -3 6 -1 10
4 10 6 0 11 -4 11 -10z m-30 -339 c0 -6 -4 -13 -10 -16 -5 -3 -10 1 -10 9 0 9
5 16 10 16 6 0 10 -4 10 -9z m47 -850 c-12 -9 -30 -25 -40 -36 -18 -20 -18
-20 -13 3 22 89 33 102 57 71 17 -22 16 -24 -4 -38z m-35 -113 c-7 -7 -12 -8
-12 -2 0 14 12 26 19 19 2 -3 -1 -11 -7 -17z"/>
<path d="M7567 12523 c-4 -3 -7 -13 -7 -22 1 -13 3 -13 11 2 11 19 8 33 -4 20z"/>
<path d="M10260 9754 c-12 -19 -20 -38 -17 -40 3 -3 15 12 27 35 25 50 19 54
-10 5z"/>
<path d="M1738 7733 c-21 -5 -21 -4 -8 -38 9 -23 13 -25 25 -15 8 7 12 17 8
23 -3 5 -1 7 4 4 6 -4 16 -1 22 7 9 11 8 15 -5 20 -17 6 -19 6 -46 -1z"/>
<path d="M8017 7423 c-14 -4 -16 -8 -6 -19 6 -8 17 -14 24 -14 7 0 15 -7 19
-15 3 -8 10 -15 15 -15 16 0 21 30 8 50 -12 20 -24 22 -60 13z"/>
<path d="M1842 7364 c2 -17 11 -33 23 -38 25 -11 53 -61 29 -52 -17 7 -17 1 1
-49 8 -22 14 -59 15 -82 0 -47 2 -48 31 -33 28 16 23 -5 -6 -24 -30 -20 -32
-41 -5 -56 24 -13 26 -30 5 -30 -9 0 -15 -10 -16 -27 0 -16 -2 -49 -4 -75 -2
-27 0 -48 5 -48 6 0 10 -7 10 -15 0 -8 5 -24 12 -34 12 -19 5 -51 -11 -51 -5
0 -13 9 -16 20 -3 11 -13 20 -22 20 -12 0 -13 -3 -4 -13 6 -8 8 -17 4 -21 -4
-4 3 -16 16 -26 18 -13 25 -29 27 -56 1 -22 5 -47 9 -56 3 -9 2 -25 -4 -36
-15 -27 -5 -50 30 -68 30 -15 36 -28 19 -39 -6 -4 -1 -14 14 -26 13 -10 27
-34 31 -55 3 -20 17 -47 30 -60 30 -30 19 -41 -12 -12 -19 18 -26 20 -32 9 -7
-11 -9 -11 -13 0 -8 22 -20 3 -13 -20 3 -12 18 -35 32 -52 26 -30 26 -30 4
-36 -24 -6 -28 -35 -6 -53 12 -10 18 -10 30 0 23 19 39 1 19 -22 -16 -16 -16
-22 -5 -40 7 -12 16 -48 19 -80 2 -32 9 -61 13 -64 5 -3 9 -13 9 -23 0 -9 14
-36 32 -60 28 -39 30 -46 20 -73 -9 -25 -8 -35 5 -55 16 -24 16 -24 -10 -17
-29 7 -35 -4 -15 -24 9 -9 9 -12 0 -12 -8 0 -4 -12 10 -30 12 -16 27 -30 34
-30 13 0 24 -22 24 -51 0 -26 -26 -24 -34 4 l-6 22 -13 -25 c-17 -30 -5 -50
29 -50 16 0 24 -6 24 -18 0 -10 8 -28 17 -42 11 -16 13 -25 5 -28 -6 -2 -8
-10 -5 -19 5 -12 1 -14 -15 -8 -34 10 -27 -14 7 -26 33 -12 48 -38 29 -51 -10
-8 -10 -11 1 -15 7 -3 22 -14 32 -24 11 -11 21 -14 24 -8 13 20 25 -4 26 -49
0 -26 3 -41 6 -34 7 17 23 15 23 -4 0 -9 -7 -31 -16 -50 -10 -20 -14 -44 -10
-59 5 -21 10 -24 26 -15 30 16 37 12 42 -20 3 -22 0 -30 -10 -30 -10 0 -12 -3
-4 -12 6 -7 11 -16 12 -20 6 -27 35 -88 42 -88 4 0 8 -6 8 -14 0 -7 7 -19 15
-26 8 -7 15 -17 15 -22 0 -16 -20 3 -46 43 -13 21 -32 39 -41 39 -13 0 -14 -3
-5 -12 18 -18 14 -30 -8 -23 -11 3 -20 2 -20 -3 0 -14 39 -61 62 -73 18 -10
19 -9 8 11 -6 12 -9 24 -6 27 10 10 52 -31 70 -71 21 -43 23 -75 11 -143 -8
-47 4 -73 36 -73 22 0 22 1 10 34 -7 18 -6 28 5 36 12 10 14 8 14 -15 0 -17
13 -42 35 -66 33 -37 47 -79 25 -79 -5 0 -14 -9 -20 -20 -9 -17 -7 -22 15 -32
14 -6 25 -17 25 -25 0 -7 11 -13 28 -13 15 0 37 -8 49 -18 21 -16 22 -19 8
-45 -13 -26 -12 -28 15 -49 16 -11 38 -42 49 -69 19 -44 34 -61 54 -65 4 -1
11 -2 16 -3 6 0 49 -51 97 -111 48 -61 100 -118 115 -126 37 -18 66 -67 37
-61 -7 1 -14 -8 -16 -20 -2 -16 2 -23 12 -23 9 0 16 -4 16 -10 0 -5 7 -7 15
-4 11 4 15 -1 15 -17 0 -35 68 -129 87 -122 14 5 15 1 9 -27 -6 -32 -5 -33 9
-15 15 20 15 20 31 0 16 -22 111 -161 145 -212 13 -20 29 -33 42 -33 15 0 18
-3 9 -8 -9 -6 -6 -12 12 -20 35 -16 87 -127 75 -160 -5 -14 -8 -26 -6 -28 6
-6 157 97 157 107 0 13 -26 11 -67 -6 -20 -8 -38 -14 -39 -12 -6 5 187 207
198 207 7 0 6 -5 -1 -14 -19 -22 -30 -71 -20 -89 5 -8 29 -27 54 -41 l46 -25
9 22 c4 12 29 72 55 132 26 61 60 148 77 195 36 102 43 111 52 68 l7 -33 32
60 c49 90 394 603 427 633 53 49 158 229 170 291 17 88 42 161 62 184 14 17
12 9 -7 -36 -25 -58 -34 -110 -16 -91 14 13 107 234 125 293 9 32 11 52 4 59
-12 12 47 132 66 132 8 0 16 10 19 23 41 185 79 298 95 283 8 -9 -71 -277 -97
-328 l-30 -58 29 0 c16 0 33 -7 38 -15 6 -12 17 13 40 87 44 140 70 282 87
480 14 155 19 179 65 315 28 81 48 153 46 159 -3 7 6 22 20 35 17 16 24 33 24
61 0 27 4 37 11 32 8 -5 10 4 7 30 -7 61 21 40 43 -31 6 -24 16 -43 21 -43 4
0 8 -9 8 -20 0 -12 -5 -17 -13 -14 -20 7 -48 -60 -41 -96 8 -39 33 -39 41 0 5
27 7 28 18 14 10 -15 13 -12 18 22 4 21 9 73 12 114 l6 75 -23 -40 -23 -40 -5
110 c-5 110 -13 141 -32 129 -6 -4 -8 1 -5 12 37 126 37 128 27 270 -5 76 -10
177 -10 224 1 77 2 83 15 66 14 -18 15 -10 15 76 l0 97 -27 3 c-17 2 -28 9
-28 18 0 8 6 14 14 12 8 -2 20 -1 28 2 11 5 10 10 -6 27 -19 21 -21 21 -46 5
-14 -9 -25 -22 -25 -29 0 -8 -20 -12 -60 -13 -33 0 -60 3 -60 8 0 4 -10 8 -22
8 -20 0 -21 1 -3 20 18 19 17 20 -3 20 -12 0 -26 -9 -32 -20 -13 -25 -70 -28
-70 -4 0 13 -5 12 -30 -6 -17 -12 -37 -19 -45 -16 -8 3 -15 1 -15 -4 0 -6 5
-10 10 -10 6 0 10 -4 10 -10 0 -15 -43 -12 -85 6 -34 14 -37 14 -32 0 11 -27
-29 -19 -65 13 -33 29 -47 34 -80 32 -12 -1 -18 -9 -18 -27 0 -20 -4 -25 -16
-20 -9 3 -27 6 -41 6 -16 0 -23 4 -20 13 3 10 -17 12 -87 11 -50 0 -109 -4
-131 -9 -32 -6 -38 -5 -28 5 7 7 40 16 74 19 68 7 96 31 37 31 -33 1 -33 1 -9
14 l23 13 -21 6 c-23 6 -67 -4 -98 -22 -17 -10 -16 -10 5 -11 23 0 30 -14 11
-25 -6 -4 -40 -11 -77 -15 -75 -10 -109 0 -172 50 -41 32 -65 37 -105 18 -33
-15 -32 -28 3 -28 34 0 71 -23 54 -34 -6 -4 -20 -2 -31 4 -14 7 -35 7 -70 -1
-27 -6 -64 -9 -82 -7 -28 2 -34 8 -41 36 -10 36 -18 39 -52 16 -17 -11 -26
-12 -31 -4 -5 8 -16 3 -34 -14 -14 -13 -39 -30 -55 -36 -25 -9 -32 -8 -55 13
-22 20 -31 23 -56 15 -16 -5 -67 -6 -113 -2 -71 5 -86 3 -103 -12 -16 -14 -48
-18 -201 -24 -101 -4 -196 -12 -211 -19 -16 -6 -42 -11 -58 -11 -26 0 -29 3
-24 20 7 22 7 22 -47 25 -26 1 -38 -2 -38 -11 0 -18 -5 -17 -33 0 -26 16 -177
28 -177 13 0 -5 -11 -6 -24 -3 -15 4 -26 1 -28 -6 -3 -9 -37 -7 -134 7 -71 10
-190 19 -264 20 -84 1 -146 6 -165 14 -16 7 -41 13 -55 13 -18 0 -29 8 -41 31
-21 42 -42 48 -37 11z m138 -394 c0 -5 -5 -10 -11 -10 -5 0 -7 5 -4 10 3 6 8
10 11 10 2 0 4 -4 4 -10z m-4 -115 c-16 -25 -16 -25 -36 -5 -23 23 -25 30 -7
30 8 0 22 10 33 21 l19 21 3 -21 c2 -12 -4 -33 -12 -46z m129 -625 c3 -5 1
-10 -4 -10 -6 0 -11 5 -11 10 0 6 2 10 4 10 3 0 8 -4 11 -10z m1861 -2667
c-11 -94 -11 -93 -69 -93 l-51 0 41 43 c22 23 48 57 57 75 9 17 19 32 22 32 4
0 3 -26 0 -57z"/>
<path d="M2525 7300 c3 -5 14 -10 23 -10 15 0 15 2 2 10 -20 13 -33 13 -25 0z"/>
<path d="M13523 7081 c-3 -11 -11 -17 -18 -15 -22 9 -27 -14 -6 -26 14 -7 22
-7 26 1 4 6 13 8 21 5 15 -6 17 -2 8 32 -8 27 -24 29 -31 3z"/>
</g>
</svg>
